<?xml version="1.0" encoding="utf-8"?>
<svg xmlns="http://www.w3.org/2000/svg" viewBox="446.363 246.8155 35.07 46.3956" width="35.07px" height="46.3956px">
  <path
    d="M 481.243 257.875 C 481.273 258.505 481.243 264.625 481.243 266.685 C 481.243 268.205 479.223 269.865 475.993 271.865 C 472.763 273.865 472.463 273.965 470.563 275.045 C 469.963 275.385 469.763 275.555 469.453 275.565 C 469.153 275.575 469.013 275.465 468.373 275.115 C 461.216 271.067 454.08 266.983 446.963 262.865 C 446.883 262.815 446.523 262.635 446.523 261.915 L 446.523 255.195 C 446.523 255.195 446.523 254.325 447.403 253.835 C 448.763 252.985 456.703 248.055 456.983 247.935 C 457.293 247.805 460.593 246.005 465.243 247.255 C 465.243 247.255 468.243 248.185 468.453 251.295 C 468.673 254.415 468.493 253.815 468.493 253.815 C 469.993 253.215 474.513 251.715 478.513 253.715 C 478.513 253.715 481.153 254.865 481.233 257.875 L 481.243 257.875 Z M 456.793 255.855 L 453.093 258.145 L 456.793 260.285 L 465.263 255.335 C 460.563 253.415 456.793 255.855 456.793 255.855 Z M 475.753 263.595 C 475.753 263.595 477.393 262.775 478.853 261.415 C 473.193 258.465 467.743 261.985 467.743 261.985 L 463.783 264.315 L 469.103 267.385 L 475.743 263.585 L 475.753 263.595 Z M 447.793 266.155 L 468.803 278.285 C 469.163 278.465 469.603 278.465 469.953 278.285 L 480.853 272.045 C 481.173 271.865 481.433 272.015 481.433 272.375 L 481.433 279.225 C 481.433 279.595 481.173 280.045 480.863 280.225 L 470.063 286.475 C 469.857 286.583 469.656 286.703 469.463 286.835 C 469.257 286.929 469.056 287.036 468.863 287.155 L 458.543 293.135 C 458.223 293.315 457.963 293.165 457.963 292.795 L 457.963 285.815 C 457.963 285.445 458.223 284.995 458.543 284.815 C 458.543 284.815 462.223 282.805 462.223 282.685 C 462.223 282.565 446.943 273.895 446.943 273.895 C 446.606 273.67 446.394 273.299 446.373 272.895 L 446.373 266.745 L 446.363 266.045 C 446.363 265.845 446.673 265.545 447.023 265.745 L 447.793 266.155 Z"
    fill="#036" style="stroke-width: 1;"
    transform="matrix(0.9999999999999999, 0, 0, 0.9999999999999999, 0, 2.842170943040401e-14)"/>
</svg>