<?xml version="1.0" encoding="UTF-8"?>
<svg xmlns="http://www.w3.org/2000/svg" xmlns:xlink="http://www.w3.org/1999/xlink" width="53px" height="70px" viewBox="0 0 53 70" version="1.1">
<g id="surface1">
<path style=" stroke:none;fill-rule:nonzero;fill:rgb(0%,20%,40.000001%);fill-opacity:1;" d="M 52.542969 16.6875 C 52.585938 17.636719 52.542969 26.871094 52.542969 29.976562 C 52.542969 32.273438 49.507812 34.777344 44.660156 37.792969 C 39.808594 40.8125 39.359375 40.960938 36.507812 42.589844 C 35.605469 43.105469 35.304688 43.359375 34.839844 43.375 C 34.390625 43.390625 34.179688 43.226562 33.21875 42.695312 C 22.472656 36.589844 11.757812 30.429688 1.074219 24.214844 C 0.953125 24.140625 0.414062 23.867188 0.414062 22.78125 L 0.414062 12.644531 C 0.414062 12.644531 0.414062 11.328125 1.734375 10.589844 C 3.777344 9.308594 15.699219 1.871094 16.117188 1.6875 C 16.582031 1.492188 21.539062 -1.222656 28.519531 0.664062 C 28.519531 0.664062 33.023438 2.066406 33.339844 6.757812 C 33.667969 11.464844 33.398438 10.5625 33.398438 10.5625 C 35.652344 9.65625 42.4375 7.390625 48.441406 10.410156 C 48.441406 10.410156 52.40625 12.144531 52.527344 16.6875 Z M 15.832031 13.636719 L 10.277344 17.09375 L 15.832031 20.324219 L 28.550781 12.855469 C 21.492188 9.957031 15.832031 13.636719 15.832031 13.636719 Z M 44.296875 25.316406 C 44.296875 25.316406 46.761719 24.078125 48.953125 22.027344 C 40.457031 17.578125 32.273438 22.886719 32.273438 22.886719 L 26.328125 26.402344 L 34.316406 31.035156 L 44.285156 25.300781 Z M 2.320312 29.179688 L 33.863281 47.480469 C 34.40625 47.75 35.066406 47.75 35.589844 47.480469 L 51.957031 38.066406 C 52.4375 37.792969 52.828125 38.019531 52.828125 38.5625 L 52.828125 48.898438 C 52.828125 49.457031 52.4375 50.136719 51.972656 50.40625 L 35.757812 59.835938 C 35.445312 60 35.144531 60.179688 34.855469 60.378906 C 34.546875 60.523438 34.242188 60.683594 33.953125 60.863281 L 18.460938 69.886719 C 17.980469 70.15625 17.589844 69.929688 17.589844 69.371094 L 17.589844 58.839844 C 17.589844 58.28125 17.980469 57.605469 18.460938 57.332031 C 18.460938 57.332031 23.984375 54.300781 23.984375 54.117188 C 23.984375 53.9375 1.042969 40.855469 1.042969 40.855469 C 0.539062 40.515625 0.21875 39.957031 0.1875 39.347656 L 0.1875 30.070312 L 0.171875 29.011719 C 0.171875 28.710938 0.640625 28.257812 1.164062 28.558594 Z M 2.320312 29.179688 "/>
</g>
</svg>
