<svg xmlns="http://www.w3.org/2000/svg" width="51.086" height="58.989" viewBox="227.904 148.043 51.086 58.989">
  <path
    d="M52.097 83.774a6.65 6.65 0 0 1-3.327-5.762V53.729L14.504 33.945c-.72 1.247-1.165 2.652-1.165 3.921v60.047c0 1.269.445 2.675 1.165 3.921s1.713 2.333 2.81 2.968l52.007 30.025c1.098.635 2.537.951 3.977.951V96.014L52.097 83.773Z"
    class="k" style="fill-rule:nonzero;fill:rgba(0,0,0,.655)" transform="translate(222.11 148.043)scale(.43445)"/>
  <path
    d="m48.77 53.531 21.201-12.24a6.65 6.65 0 0 1 6.654 0l21.201 12.24v.198l31.453-18.159c2.197-1.269 2.198-3.326.001-4.593L77.276.952C76.178.317 74.738 0 73.298 0s-2.879.317-3.978.952l-2.375 1.37-49.632 28.655c-1.096.635-2.089 1.722-2.809 2.968L48.77 53.728z"
    class="i" style="fill:rgba(0,0,0,.51)" transform="translate(222.11 148.043)scale(.43445)"/>
  <path
    d="M129.28 100.21 97.655 81.952 73.298 96.015v39.764c1.439 0 2.88-.317 3.977-.951l52.003-30.024c2.197-1.268 2.198-3.325.001-4.594z"
    class="j" style="fill:rgba(0,0,0,.91)" transform="translate(222.11 148.043)scale(.43445)"/>
</svg>