<?xml version="1.0" encoding="utf-8"?>
<svg xmlns="http://www.w3.org/2000/svg" viewBox="248.0515 265.3985 20.685 24.0003" width="20.685px" height="24.0003px">
  <path d="M 10166.4 3978.43 L 10228 4087.83 C 10229.5 4090.08 10229.5 4092.98 10228 4095.23 C 10226.6 4097.27 10224.3 4098.52 10221.7 4098.63 L 10094.9 4098.63 C 10092.5 4098.49 10090.2 4097.24 10088.7 4095.23 L 10023.4 3982.23 C 10021.9 3979.83 10021.9 3976.93 10023.4 3974.93 L 10088.7 3862.03 C 10090 3859.86 10092.4 3858.56 10094.9 3858.63 L 10221.7 3858.63 C 10224.1 3858.63 10226.5 3860.13 10228 3862.03 C 10229.5 3864.28 10229.5 3867.18 10228 3869.43 L 10166.5 3978.43 L 10166.4 3978.43 Z M 10158.4 3993.03 L 10107.4 4084.03 L 10209.7 4084.03 L 10158.3 3993.03 L 10158.4 3993.03 Z M 10094.4 4076.63 L 10149.7 3978.43 L 10094.4 3880.13 L 10037.8 3978.43 L 10094.4 4076.63 Z M 10107.4 3873.33 L 10158.4 3964.23 L 10209.2 3873.23 L 10107.4 3873.23 L 10107.4 3873.33 Z" fill="#28e69b" style="stroke-width: 10;" transform="matrix(0.10000000149011612, 0, 0, -0.10000000149011612, -754.176025390625, 675.2615356445312)"/>
</svg>