<?xml version="1.0" encoding="utf-8"?>
<svg xmlns="http://www.w3.org/2000/svg" viewBox="121.432 140.7677 62.3268 56.7343" width="62.3268px" height="56.7343px">
  <path class="cls-1" d="M13.46,46.36l9.06,9.06a4.48,4.48,0,0,0,6.34,0L54,30.27a4.48,4.48,0,0,0,0-6.34L45,14.87Z" style="fill: rgb(0, 85, 140);" transform="matrix(1.0000000149011612, 0, 0, 1.0000000149011612, 121.43268898142422, 140.76772045949383)"/>
  <path class="cls-1" d="M46.56,2.81A2.81,2.81,0,0,0,43.75,0h-9a2.81,2.81,0,0,0,0,5.62h2.14L13.07,29.43a4.48,4.48,0,0,0,0,6.34l.86.86L45.42,5.14l0,0A2.81,2.81,0,0,0,46.56,2.81Z" style="fill: rgb(0, 85, 140);" transform="matrix(1.0000000149011612, 0, 0, 1.0000000149011612, 121.43268898142422, 140.76772045949383)"/>
  <path class="cls-1" d="M.94,49.41a.94.94,0,0,1-.67-1.6l8.65-8.64a.93.93,0,1,1,1.32,1.32L1.6,49.13A.9.9,0,0,1,.94,49.41Z" style="fill: rgb(0, 85, 140);" transform="matrix(1.0000000149011612, 0, 0, 1.0000000149011612, 121.43268898142422, 140.76772045949383)"/>
  <path class="cls-1" d="M49.38,12.82a1,1,0,0,1-.67-.28.94.94,0,0,1,0-1.32L59.3.63A.94.94,0,0,1,60.62,2L50,12.54A1,1,0,0,1,49.38,12.82Z" style="fill: rgb(0, 85, 140);" transform="matrix(1.0000000149011612, 0, 0, 1.0000000149011612, 121.43268898142422, 140.76772045949383)"/>
  <path class="cls-1" d="M54.38,17.82a.94.94,0,0,1-.66-1.6l7.06-7.06a.94.94,0,0,1,1.32,1.33L55,17.55A.93.93,0,0,1,54.38,17.82Z" style="fill: rgb(0, 85, 140);" transform="matrix(1.0000000149011612, 0, 0, 1.0000000149011612, 121.43268898142422, 140.76772045949383)"/>
</svg>