<?xml version="1.0" encoding="utf-8"?>
<svg xmlns="http://www.w3.org/2000/svg" viewBox="84.824 -29.7385 414.5624 565" width="414.562px" height="565px">
  <path d="M9115 7038 c-17 -10 -288 -261 -555 -514 -41 -39 -97 -90 -123 -114 -74 -67 -66 -74 90 -80 104 -4 136 -9 148 -21 13 -13 19 -50 25 -160 21 -343 89 -646 203 -904 85 -191 193 -370 326 -540 76 -97 387 -404 418 -411 17 -5 33 0 51 15 15 11 94 69 175 128 275 199 402 298 405 315 2 11 -41 60 -122 138 -225 218 -367 435 -455 699 -67 201 -100 373 -108 573 l-6 147 27 11 c15 5 81 10 147 10 154 0 157 6 53 102 -43 40 -98 93 -123 118 -25 25 -134 126 -241 225 -107 99 -217 201 -244 227 -53 51 -60 54 -91 36z" transform="matrix(0.10000000149011612, 0, 0, -0.10000000149011612, -754.176025390625, 675.2615356445312)"/>
  <path d="M11744 7028 c-27 -20 -82 -71 -279 -258 -71 -68 -352 -330 -414 -387 -14 -13 -21 -28 -18 -37 5 -13 27 -16 129 -16 163 0 168 -3 168 -108 0 -96 -32 -339 -59 -452 -61 -258 -174 -491 -334 -690 -79 -97 -229 -251 -303 -310 -17 -14 -85 -68 -150 -121 -66 -53 -143 -112 -172 -133 -29 -20 -72 -51 -96 -69 -24 -17 -87 -63 -141 -102 -100 -72 -285 -214 -416 -320 -105 -85 -321 -303 -410 -415 -141 -176 -297 -437 -356 -595 -60 -162 -96 -277 -126 -410 -14 -59 -67 -403 -67 -434 0 -5 -7 -17 -16 -25 -12 -13 -41 -16 -155 -16 l-139 0 0 -24 c0 -14 8 -31 19 -38 16 -11 182 -166 571 -532 134 -126 153 -141 173 -129 17 9 191 170 442 407 93 89 198 188 232 220 35 33 63 67 63 78 0 16 -10 18 -117 19 -157 1 -167 5 -171 54 -7 84 48 349 114 544 39 117 157 337 238 445 93 124 227 268 330 355 168 140 206 170 396 309 388 283 447 327 550 411 142 115 409 385 497 502 316 421 460 838 499 1446 4 56 10 107 15 115 6 9 46 14 146 18 163 6 171 13 95 81 -65 59 -473 442 -589 552 -50 48 -98 87 -106 87 -8 0 -27 -10 -43 -22z" transform="matrix(0.10000000149011612, 0, 0, -0.10000000149011612, -754.176025390625, 675.2615356445312)"/>
  <path d="M11186 3968 c-30 -24 -91 -68 -133 -99 -337 -242 -413 -302 -413 -325 0 -7 51 -64 113 -126 176 -176 267 -299 361 -483 101 -200 169 -431 196 -670 16 -134 15 -135 -156 -135 -113 0 -124 -2 -124 -18 0 -19 55 -74 310 -312 80 -74 186 -173 235 -220 148 -140 193 -180 207 -180 7 0 33 19 58 43 118 111 217 203 350 327 245 228 355 339 345 349 -6 5 -72 11 -147 13 -107 2 -141 6 -153 18 -9 9 -19 50 -25 100 -33 266 -77 466 -145 660 -75 214 -225 487 -369 670 -130 167 -397 430 -435 430 -10 0 -44 -19 -75 -42z" transform="matrix(0.10000000149011612, 0, 0, -0.10000000149011612, -754.176025390625, 675.2615356445312)"/>
</svg>