<?xml version="1.0" encoding="UTF-8"?>
<svg xmlns="http://www.w3.org/2000/svg" xmlns:xlink="http://www.w3.org/1999/xlink" width="51px" height="70px" viewBox="0 0 51 70" version="1.1">
<g id="surface1">
<path style=" stroke:none;fill-rule:nonzero;fill:rgb(0%,0%,0%);fill-opacity:1;" d="M 8.9375 0.148438 C 8.726562 0.273438 5.398438 3.382812 2.117188 6.515625 C 1.613281 7 0.925781 7.632812 0.605469 7.929688 C -0.304688 8.757812 -0.207031 8.847656 1.710938 8.921875 C 2.988281 8.96875 3.382812 9.03125 3.527344 9.179688 C 3.6875 9.339844 3.761719 9.800781 3.835938 11.164062 C 4.09375 15.414062 4.929688 19.167969 6.332031 22.363281 C 7.375 24.730469 8.703125 26.945312 10.335938 29.054688 C 11.269531 30.253906 15.09375 34.058594 15.472656 34.144531 C 15.683594 34.207031 15.878906 34.144531 16.101562 33.960938 C 16.285156 33.824219 17.257812 33.105469 18.25 32.375 C 21.632812 29.90625 23.191406 28.679688 23.230469 28.472656 C 23.253906 28.335938 22.726562 27.726562 21.730469 26.761719 C 18.964844 24.058594 17.21875 21.371094 16.136719 18.101562 C 15.316406 15.609375 14.910156 13.480469 14.8125 11 L 14.738281 9.179688 L 15.070312 9.042969 C 15.253906 8.980469 16.0625 8.921875 16.875 8.921875 C 18.769531 8.921875 18.804688 8.847656 17.527344 7.65625 C 17 7.160156 16.324219 6.503906 16.015625 6.195312 C 15.707031 5.886719 14.367188 4.632812 13.054688 3.40625 C 11.738281 2.179688 10.386719 0.917969 10.054688 0.59375 C 9.402344 -0.0390625 9.316406 -0.0742188 8.9375 0.148438 Z M 8.9375 0.148438 "/>
<path style=" stroke:none;fill-rule:nonzero;fill:rgb(0%,0%,0%);fill-opacity:1;" d="M 41.246094 0.273438 C 40.914062 0.519531 40.238281 1.152344 37.816406 3.46875 C 36.945312 4.3125 33.492188 7.558594 32.726562 8.265625 C 32.554688 8.425781 32.46875 8.609375 32.507812 8.722656 C 32.570312 8.882812 32.839844 8.921875 34.09375 8.921875 C 36.09375 8.921875 36.15625 8.957031 36.15625 10.257812 C 36.15625 11.449219 35.765625 14.457031 35.433594 15.859375 C 34.683594 19.054688 33.292969 21.941406 31.328125 24.40625 C 30.355469 25.609375 28.511719 27.515625 27.605469 28.246094 C 27.394531 28.421875 26.558594 29.089844 25.761719 29.746094 C 24.949219 30.402344 24.003906 31.132812 23.648438 31.394531 C 23.289062 31.640625 22.761719 32.027344 22.46875 32.25 C 22.171875 32.460938 21.398438 33.03125 20.734375 33.511719 C 19.503906 34.40625 17.230469 36.164062 15.621094 37.476562 C 14.332031 38.53125 11.675781 41.230469 10.582031 42.621094 C 8.851562 44.800781 6.933594 48.035156 6.207031 49.992188 C 5.472656 52 5.027344 53.421875 4.660156 55.070312 C 4.488281 55.800781 3.835938 60.0625 3.835938 60.449219 C 3.835938 60.507812 3.75 60.660156 3.640625 60.757812 C 3.492188 60.917969 3.136719 60.957031 1.734375 60.957031 L 0.0273438 60.957031 L 0.0273438 61.253906 C 0.0273438 61.425781 0.125 61.636719 0.261719 61.722656 C 0.457031 61.859375 2.496094 63.78125 7.277344 68.316406 C 8.925781 69.875 9.15625 70.0625 9.402344 69.914062 C 9.613281 69.800781 11.75 67.808594 14.835938 64.871094 C 15.976562 63.769531 17.269531 62.542969 17.6875 62.144531 C 18.117188 61.734375 18.460938 61.316406 18.460938 61.179688 C 18.460938 60.980469 18.335938 60.957031 17.023438 60.945312 C 15.09375 60.929688 14.96875 60.882812 14.921875 60.273438 C 14.835938 59.234375 15.511719 55.949219 16.324219 53.535156 C 16.800781 52.085938 18.25 49.359375 19.246094 48.019531 C 20.390625 46.484375 22.035156 44.699219 23.300781 43.621094 C 25.367188 41.886719 25.835938 41.515625 28.167969 39.792969 C 32.9375 36.289062 33.664062 35.742188 34.929688 34.703125 C 36.671875 33.277344 39.953125 29.933594 41.035156 28.484375 C 44.917969 23.265625 46.6875 18.101562 47.167969 10.566406 C 47.21875 9.875 47.289062 9.242188 47.351562 9.144531 C 47.425781 9.03125 47.917969 8.96875 49.148438 8.921875 C 51.148438 8.847656 51.25 8.757812 50.3125 7.917969 C 49.515625 7.1875 44.5 2.441406 43.074219 1.078125 C 42.460938 0.484375 41.871094 0 41.773438 0 C 41.675781 0 41.441406 0.125 41.246094 0.273438 Z M 41.246094 0.273438 "/>
<path style=" stroke:none;fill-rule:nonzero;fill:rgb(0%,0%,0%);fill-opacity:1;" d="M 34.386719 38.183594 C 34.019531 38.480469 33.269531 39.027344 32.753906 39.410156 C 28.613281 42.410156 27.675781 43.152344 27.675781 43.4375 C 27.675781 43.523438 28.304688 44.230469 29.066406 45 C 31.230469 47.179688 32.347656 48.703125 33.503906 50.980469 C 34.742188 53.460938 35.578125 56.320312 35.910156 59.28125 C 36.109375 60.945312 36.09375 60.957031 33.992188 60.957031 C 32.605469 60.957031 32.46875 60.980469 32.46875 61.179688 C 32.46875 61.414062 33.144531 62.09375 36.28125 65.042969 C 37.261719 65.960938 38.566406 67.1875 39.167969 67.769531 C 40.988281 69.503906 41.539062 70 41.710938 70 C 41.796875 70 42.117188 69.765625 42.425781 69.46875 C 43.875 68.09375 45.089844 66.953125 46.726562 65.414062 C 49.738281 62.589844 51.089844 61.214844 50.964844 61.09375 C 50.890625 61.03125 50.082031 60.957031 49.160156 60.929688 C 47.84375 60.90625 47.425781 60.855469 47.277344 60.707031 C 47.167969 60.597656 47.046875 60.089844 46.972656 59.46875 C 46.566406 56.171875 46.023438 53.695312 45.191406 51.292969 C 44.269531 48.640625 42.425781 45.257812 40.65625 42.992188 C 39.058594 40.921875 35.777344 37.664062 35.308594 37.664062 C 35.1875 37.664062 34.769531 37.898438 34.386719 38.183594 Z M 34.386719 38.183594 "/>
</g>
</svg>
