<?xml version="1.0" encoding="UTF-8"?>
<svg xmlns="http://www.w3.org/2000/svg" xmlns:xlink="http://www.w3.org/1999/xlink" width="70px" height="58px" viewBox="0 0 70 58" version="1.1">
<g id="surface1">
<path style=" stroke:none;fill-rule:nonzero;fill:rgb(0%,0%,0%);fill-opacity:1;" d="M 10.292969 50.476562 L 41.90625 50.476562 C 53.160156 50.476562 62.289062 41.386719 62.289062 30.171875 L 62.289062 10.109375 C 62.289062 8.691406 61.230469 7.523438 59.679688 7.523438 L 25.417969 7.523438 C 15.640625 7.523438 7.710938 15.417969 7.710938 25.160156 L 7.710938 47.90625 C 7.714844 49.324219 8.867188 50.476562 10.292969 50.476562 M 41.902344 58 L 6.546875 58 C 3.019531 58 0.160156 55.152344 0.160156 51.636719 L 0.160156 25.160156 C 0.160156 11.261719 11.46875 0 25.417969 0 L 63.453125 0 C 66.980469 0 69.839844 2.847656 69.839844 6.363281 L 69.839844 30.171875 C 69.84375 45.539062 57.332031 58 41.902344 58 "/>
<path style=" stroke:none;fill-rule:nonzero;fill:rgb(0%,0%,0%);fill-opacity:1;" d="M 24.871094 11.945312 C 17.929688 11.945312 12.300781 17.550781 12.300781 24.46875 L 12.300781 44.675781 C 12.300781 45.574219 13.03125 46.300781 13.929688 46.300781 L 18.246094 46.300781 C 18.671875 46.300781 19.082031 46.132812 19.382812 45.832031 C 19.683594 45.53125 19.851562 45.125 19.851562 44.703125 L 19.851562 34.890625 C 19.851562 33.714844 20.804688 32.765625 21.984375 32.765625 L 40.433594 32.765625 C 43.109375 32.765625 45.101562 29.472656 43.109375 26.675781 C 42.601562 25.960938 41.761719 25.554688 40.882812 25.554688 L 20.824219 25.554688 C 20.269531 25.554688 19.847656 25.058594 19.929688 24.511719 C 20.433594 21.238281 23.269531 18.734375 26.695312 18.734375 L 42.023438 18.734375 C 45.644531 18.734375 49.015625 20.71875 50.632812 23.945312 C 54.484375 31.621094 48.878906 39.316406 41.550781 39.316406 L 29.367188 39.316406 C 28.257812 39.316406 27.359375 40.210938 27.359375 41.3125 L 27.359375 44.714844 C 27.359375 45.589844 28.074219 46.300781 28.957031 46.300781 L 42.183594 46.070312 C 50.609375 46.070312 57.929688 38.71875 57.929688 30.328125 L 57.953125 13.566406 C 57.953125 12.882812 57.449219 11.945312 56.320312 11.945312 Z M 24.871094 11.945312 "/>
</g>
</svg>
