<svg xmlns="http://www.w3.org/2000/svg" width="231.5" height="193.47" viewBox="5.85 8.07 231.5 193.47">
  <path
    d="M39.52 176.44h105.02c37.4 0 67.73-30.32 67.73-67.73V41.79c0-4.73-3.52-8.63-8.68-8.63H89.77c-32.49 0-58.83 26.34-58.83 58.83v75.88c.01 4.73 3.84 8.57 8.58 8.57m105.01 25.1H27.07c-11.72 0-21.22-9.5-21.22-21.22V91.99c0-46.35 37.57-83.92 83.92-83.92h126.36c11.72 0 21.22 9.5 21.22 21.22v79.42c.01 51.27-41.55 92.83-92.82 92.83"
    class="st0"/>
  <path
    d="M87.95 47.92c-23.07 0-41.77 18.7-41.77 41.77v67.41c0 2.99 2.43 5.42 5.42 5.42h14.34a5.33 5.33 0 0 0 5.33-5.34v-32.73a7.09 7.09 0 0 1 7.09-7.09h61.29c8.89 0 15.51-10.98 8.89-20.31-1.69-2.38-4.48-3.74-7.4-3.74H74.5c-1.84 0-3.24-1.65-2.97-3.47 1.67-10.92 11.1-19.28 22.48-19.28h50.92c12.03 0 23.23 6.62 28.61 17.39 12.8 25.6-5.83 51.27-30.17 51.27h-40.49c-3.68 0-6.66 2.98-6.66 6.65v11.35c0 2.93 2.37 5.3 5.3 5.3l43.95-.78c27.99 0 52.31-24.52 52.31-52.51l.08-55.91c0-2.28-1.68-5.4-5.43-5.4z"
    class="st1"/>
</svg>