<?xml version="1.0" encoding="utf-8"?>
<svg xmlns="http://www.w3.org/2000/svg" viewBox="39.5086 177.191 73.0744 88.768" width="73.0744px" height="88.768px">
  <path d="M 100.859 221.24 L 98.347 232.881 C 95.583 245.861 81.766 256.831 69.036 256.831 C 56.14 256.831 47.096 245.861 49.775 232.964 L 54.214 212.029 L 44.667 212.029 L 40.229 232.964 C 36.293 251.137 48.938 265.959 67.11 265.959 C 85.283 265.959 104.209 251.137 108.061 232.964 L 112.583 211.61 L 75.317 211.61 L 75.066 211.61 L 82.687 221.324 L 100.859 221.324 L 100.859 221.24 Z" fill="#101010" style="stroke-width: 1;"/>
  <path d="M 63.089 196.284 L 70.626 205.915 L 72.384 197.791 C 73.808 191.092 77.744 186.821 84.36 186.821 C 90.975 186.821 93.236 191.092 91.813 197.791 L 90.138 205.747 L 99.768 205.747 L 101.443 197.791 C 104.039 185.816 98.429 177.191 86.453 177.191 C 75.064 177.191 66.104 185.062 63.089 196.284 Z" fill="#101010" style="stroke-width: 1;"/>
</svg>