<?xml version="1.0" encoding="UTF-8"?>
<svg xmlns="http://www.w3.org/2000/svg" xmlns:xlink="http://www.w3.org/1999/xlink" width="57px" height="70px" viewBox="0 0 57 70" version="1.1">
<g id="surface1">
<path style=" stroke:none;fill-rule:nonzero;fill:rgb(6.27451%,6.27451%,6.27451%);fill-opacity:1;" d="M 47.855469 34.738281 L 45.894531 43.882812 C 43.738281 54.082031 32.960938 62.703125 23.03125 62.703125 C 12.972656 62.703125 5.917969 54.082031 8.007812 43.949219 L 11.46875 27.5 L 4.023438 27.5 L 0.5625 43.949219 C -2.507812 58.226562 7.355469 69.875 21.53125 69.875 C 35.707031 69.875 50.46875 58.226562 53.472656 43.949219 L 57 27.171875 L 27.734375 27.171875 L 33.679688 34.804688 L 47.855469 34.804688 Z M 47.855469 34.738281 "/>
<path style=" stroke:none;fill-rule:nonzero;fill:rgb(6.27451%,6.27451%,6.27451%);fill-opacity:1;" d="M 18.394531 15.128906 L 24.273438 22.695312 L 25.644531 16.3125 C 26.753906 11.050781 29.824219 7.691406 34.984375 7.691406 C 40.144531 7.691406 41.910156 11.050781 40.800781 16.3125 L 39.492188 22.5625 L 47.003906 22.5625 L 48.308594 16.3125 C 50.335938 6.902344 45.960938 0.125 36.617188 0.125 C 27.734375 0.125 20.746094 6.3125 18.394531 15.128906 Z M 18.394531 15.128906 "/>
</g>
</svg>
