<?xml version="1.0" encoding="utf-8"?>
<svg xmlns="http://www.w3.org/2000/svg" viewBox="87.1777 90.7473 63.0631 56.7427" width="63.0631px" height="56.7427px">
  <path d="M 135.843 132.62 C 143.57 121.477 141.697 106.309 131.493 97.38 C 127.247 93.616 121.898 91.326 116.243 90.85 C 108.243 90.16 100.583 92.97 94.983 98.56 C 84.576 109.003 84.576 125.897 94.983 136.34 C 101.646 143.05 111.375 145.709 120.523 143.32 L 121.523 143.05 L 112.553 134.07 L 112.393 134.04 C 109.652 133.778 107.019 132.836 104.733 131.3 C 99.476 127.728 96.716 121.471 97.623 115.18 C 98.014 112.433 99.106 109.832 100.793 107.63 C 104.396 102.844 110.31 100.386 116.243 101.21 C 124.492 102.297 130.63 109.371 130.543 117.69 C 130.473 120.979 129.445 124.177 127.583 126.89 C 126.772 128.159 125.762 129.29 124.593 130.24 L 121.983 132.44 C 121.829 132.565 121.815 132.796 121.953 132.94 L 136.513 147.49 L 149.903 147.49 C 150.203 147.49 150.353 147.12 150.143 146.91 L 135.843 132.61 L 135.843 132.62 Z" fill="#585852" style="stroke-width: 1;"/>
  <path d="M 116.963 131.51 C 116.773 131.32 116.863 131.01 117.123 130.95 C 119.604 130.355 121.871 129.085 123.673 127.28 C 129.332 121.613 129.039 112.348 123.033 107.05 C 117.778 102.481 109.959 102.481 104.703 107.05 C 98.701 112.351 98.413 121.616 104.073 127.28 L 123.963 147.18 L 131.803 147.18 C 132.103 147.18 132.253 146.8 132.043 146.59 L 116.963 131.52 L 116.963 131.51 Z M 108.373 122.92 C 105.336 119.898 105.336 114.982 108.373 111.96 C 111.397 108.916 116.32 108.916 119.343 111.96 C 122.381 114.982 122.381 119.898 119.343 122.92 C 116.32 125.964 111.397 125.964 108.373 122.92 Z" fill="#8dc63f" style="stroke-width: 1;"/>
</svg>