<?xml version="1.0" encoding="utf-8"?>
<svg xmlns="http://www.w3.org/2000/svg" viewBox="230.659 204.746 84 83.755" width="84px" height="83.755px">
  <path d="M 314.659 246.565 C 314.657 245.963 314.643 245.364 314.616 244.767 L 314.616 210.776 L 305.219 220.173 C 297.528 210.759 285.828 204.746 272.723 204.746 C 259.085 204.746 246.969 211.256 239.31 221.337 L 254.713 236.902 C 256.222 234.111 258.367 231.713 260.952 229.902 C 263.641 227.803 267.451 226.088 272.722 226.088 C 273.359 226.088 273.85 226.162 274.211 226.302 C 280.742 226.818 286.402 230.422 289.735 235.653 L 278.832 246.556 C 292.642 246.501 308.243 246.47 314.657 246.563" style="fill: rgb(28, 58, 169); stroke-width: 1;"/>
  <path d="M 272.478 204.748 C 271.875 204.75 271.276 204.764 270.68 204.791 L 236.689 204.791 L 246.086 214.188 C 236.672 221.879 230.659 233.579 230.659 246.684 C 230.659 260.322 237.169 272.438 247.25 280.097 L 262.815 264.694 C 260.023 263.184 257.626 261.04 255.815 258.454 C 253.716 255.765 252 251.955 252 246.684 C 252 246.048 252.075 245.556 252.215 245.195 C 252.73 238.665 256.334 233.004 261.565 229.671 L 272.468 240.574 C 272.414 226.764 272.382 211.163 272.475 204.749" style="fill: rgb(66, 133, 244); stroke-width: 1;"/>
  <path d="M 230.661 246.683 C 230.663 247.285 230.677 247.884 230.704 248.481 L 230.704 282.472 L 240.101 273.074 C 247.792 282.489 259.492 288.501 272.597 288.501 C 286.235 288.501 298.351 281.992 306.01 271.91 L 290.607 256.345 C 289.097 259.137 286.953 261.535 284.367 263.346 C 281.678 265.444 277.868 267.16 272.597 267.16 C 271.96 267.16 271.469 267.086 271.108 266.946 C 264.577 266.43 258.917 262.826 255.584 257.595 L 266.487 246.692 C 252.677 246.747 237.076 246.778 230.662 246.685" style="fill: rgb(171, 171, 171); stroke-width: 1;"/>
</svg>