<?xml version="1.0" encoding="UTF-8"?>
<svg xmlns="http://www.w3.org/2000/svg" xmlns:xlink="http://www.w3.org/1999/xlink" width="70px" height="70px" viewBox="0 0 70 70" version="1.1">
<g id="surface1">
<path style=" stroke:none;fill-rule:nonzero;fill:rgb(10.980392%,22.745098%,66.274512%);fill-opacity:1;" d="M 70 34.953125 C 70 34.449219 69.988281 33.949219 69.964844 33.453125 L 69.964844 5.128906 L 62.132812 12.957031 C 55.722656 5.113281 45.972656 0.101562 35.054688 0.101562 C 23.6875 0.101562 13.589844 5.527344 7.210938 13.929688 L 20.046875 26.898438 C 21.300781 24.574219 23.089844 22.574219 25.246094 21.066406 C 27.484375 19.316406 30.660156 17.886719 35.050781 17.886719 C 35.582031 17.886719 35.992188 17.949219 36.292969 18.066406 C 41.734375 18.496094 46.453125 21.5 49.230469 25.859375 L 40.144531 34.945312 C 51.652344 34.898438 64.652344 34.871094 70 34.949219 "/>
<path style=" stroke:none;fill-rule:nonzero;fill:rgb(25.882354%,52.156866%,95.686275%);fill-opacity:1;" d="M 34.847656 0.105469 C 34.347656 0.105469 33.847656 0.117188 33.351562 0.140625 L 5.023438 0.140625 L 12.855469 7.96875 C 5.011719 14.378906 0 24.128906 0 35.050781 C 0 46.414062 5.425781 56.511719 13.824219 62.894531 L 26.796875 50.058594 C 24.46875 48.800781 22.472656 47.015625 20.964844 44.859375 C 19.214844 42.617188 17.785156 39.441406 17.785156 35.050781 C 17.785156 34.519531 17.847656 34.109375 17.964844 33.808594 C 18.390625 28.367188 21.394531 23.652344 25.753906 20.871094 L 34.839844 29.957031 C 34.796875 18.449219 34.769531 5.449219 34.847656 0.105469 "/>
<path style=" stroke:none;fill-rule:nonzero;fill:rgb(67.058825%,67.058825%,67.058825%);fill-opacity:1;" d="M 0 35.050781 C 0.00390625 35.550781 0.015625 36.050781 0.0390625 36.546875 L 0.0390625 64.875 L 7.867188 57.042969 C 14.277344 64.886719 24.027344 69.898438 34.949219 69.898438 C 46.3125 69.898438 56.410156 64.472656 62.792969 56.070312 L 49.957031 43.101562 C 48.699219 45.429688 46.910156 47.425781 44.757812 48.933594 C 42.515625 50.683594 39.339844 52.113281 34.949219 52.113281 C 34.417969 52.113281 34.007812 52.050781 33.707031 51.933594 C 28.265625 51.503906 23.546875 48.503906 20.769531 44.144531 L 29.855469 35.058594 C 18.347656 35.101562 5.347656 35.128906 0.00390625 35.050781 "/>
</g>
</svg>
