<?xml version="1.0" encoding="utf-8"?>
<svg xmlns="http://www.w3.org/2000/svg" viewBox="145.4327 127.6076 35.879 31.9876" width="35.879px" height="31.9876px">
  <defs>
    <linearGradient id="paint0_linear_2_952" x1="114.286" y1="33.2217" x2="103.005" y2="3.00282"
                    gradientUnits="userSpaceOnUse" gradientTransform="matrix(1, 0, 0, 1, -80, 0)">
      <stop stop-color="#00CE7C"/>
      <stop offset="0.171" stop-color="#06CE82"/>
      <stop offset="0.3948" stop-color="#15CE92"/>
      <stop offset="0.6479" stop-color="#2FCFAD"/>
      <stop offset="0.9205" stop-color="#53D0D3"/>
      <stop offset="1" stop-color="#5FD0DF"/>
    </linearGradient>
    <linearGradient id="paint1_linear_2_952" x1="15.4953" y1="38.4559" x2="3.00678" y2="4.79261"
                    gradientUnits="userSpaceOnUse">
      <stop stop-color="#9D1D96"/>
      <stop offset="0.0322" stop-color="#9D1D96"/>
      <stop offset="0.1545" stop-color="#A02391"/>
      <stop offset="0.3148" stop-color="#A93381"/>
      <stop offset="0.4961" stop-color="#B94E68"/>
      <stop offset="0.6929" stop-color="#CE7445"/>
      <stop offset="0.9001" stop-color="#E9A418"/>
      <stop offset="1" stop-color="#F7BE00"/>
    </linearGradient>
  </defs>
  <path
    d="M 26.924 0 C 26.43 0 25.912 0.037 25.358 0.124 L 25.358 4.161 C 27.804 3.938 28.491 5.031 28.491 6.72 L 28.491 11.292 C 28.491 13.118 29.178 15.168 31.383 16 L 31.383 16.037 C 29.178 16.87 28.491 18.882 28.491 20.77 L 28.491 25.255 C 28.491 26.957 27.804 28.037 25.358 27.814 L 25.358 31.839 C 25.936 31.926 26.466 31.975 26.972 31.975 L 26.985 31.975 C 30.841 31.975 32.685 29.478 32.685 25.826 L 32.685 21.118 C 32.685 19.839 33.119 18.174 35.879 17.727 L 35.879 14.335 C 33.119 13.851 32.685 12.186 32.685 10.932 L 32.685 6.137 C 32.685 2.484 30.829 0 26.948 0 L 26.924 0 Z"
    fill="url(#paint0_linear_2_952)" transform="matrix(1, 0, 0, 1, 145.43269348144528, 127.60758209228516)"/>
  <path
    d="M8.90634 0C5.04974 0 3.2058 2.49689 3.2058 6.14907V10.8571C3.2058 12.1366 2.77193 13.8012 0 14.2484V17.6398C2.77193 18.1242 3.2058 19.7888 3.2058 21.0311V25.8385C3.2058 29.5031 5.06179 31.9752 8.9425 31.9876H8.97865C9.47278 31.9876 9.99101 31.9503 10.5454 31.8634V27.8261C8.08682 28.0497 7.41191 26.9565 7.41191 25.2671V20.6832C7.41191 18.8571 6.72495 16.8075 4.51946 15.9752V15.9379C6.72495 15.1056 7.41191 13.0807 7.41191 11.1925V6.73292C7.41191 5.03106 8.09887 3.95031 10.5454 4.17391V0.136646C9.96691 0.0372671 9.42457 0 8.90634 0Z"
    fill="url(#paint1_linear_2_952)" transform="matrix(1, 0, 0, 1, 145.43269348144528, 127.60758209228516)"/>
</svg>