<?xml version="1.0" encoding="utf-8"?>
<svg xmlns="http://www.w3.org/2000/svg" viewBox="142.9524 193.2663 37.0296 36.5767" width="37.0296px"
     height="36.5767px">
  <path
    d="M 175.652 221.153 C 175.309 221.664 174.931 222.152 174.522 222.613 C 173.574 223.67 172.503 224.61 171.332 225.413 C 169.87 226.412 168.292 227.228 166.632 227.843 C 165.232 228.343 163.992 228.603 162.902 228.653 L 162.532 228.653 C 161.992 228.653 161.612 228.603 161.392 228.443 L 161.292 228.383 L 161.182 228.283 L 161.182 228.223 C 161.182 228.173 161.182 228.063 161.232 227.953 C 161.332 227.683 161.502 227.473 161.722 227.203 C 161.772 227.143 161.882 227.033 161.932 226.933 C 162.742 226.713 163.552 226.443 164.472 226.173 C 165.282 226.333 166.152 226.393 166.902 226.333 C 167.844 226.239 168.76 225.967 169.602 225.533 C 170.576 224.995 171.439 224.275 172.142 223.413 C 172.582 222.823 172.952 222.233 173.222 221.523 C 174.573 220.495 175.808 219.321 176.902 218.023 L 177.382 217.363 C 177.012 218.663 176.462 219.963 175.652 221.153 M 170.092 223.583 C 170.412 223.413 170.692 223.203 171.012 223.043 C 170.576 223.577 170.067 224.048 169.502 224.443 C 168.742 224.933 167.932 225.313 167.122 225.473 L 166.042 225.633 C 167.429 225.025 168.781 224.341 170.092 223.583 M 179.982 210.023 C 179.983 208.454 179.591 206.91 178.842 205.533 C 178.118 204.212 177.171 203.028 176.042 202.033 C 175.717 200.501 174.964 199.094 173.872 197.973 C 172.866 196.925 171.697 196.047 170.412 195.373 C 169.298 194.77 168.125 194.285 166.912 193.923 C 165.924 193.624 164.909 193.423 163.882 193.323 C 163.089 193.231 162.288 193.251 161.502 193.383 C 160.802 193.543 160.152 193.763 159.562 194.083 L 159.452 194.133 C 158.642 194.033 157.832 194.033 157.072 194.083 L 156.852 194.083 C 156.102 194.133 154.532 194.353 154.642 195.113 C 154.642 195.113 154.642 195.543 155.612 195.863 L 156.962 195.063 C 156.862 195.063 156.752 195.003 156.642 195.003 C 157.072 194.943 157.502 194.893 157.832 194.893 L 158.102 194.893 C 157.992 194.943 157.932 194.993 157.832 195.053 L 157.392 195.323 C 156.592 195.813 156.312 196.023 155.452 196.523 C 154.912 196.833 154.422 197.163 153.882 197.423 C 152.862 197.973 151.832 198.513 150.752 199.053 C 149.892 199.433 149.022 199.863 147.892 200.353 L 147.782 200.403 C 147.512 200.503 147.242 200.623 147.022 200.723 L 146.972 200.723 C 146.702 200.833 146.372 200.993 146.212 201.323 L 146.162 201.533 L 146.162 201.753 C 146.162 201.803 146.212 201.853 146.212 201.853 L 146.372 202.023 L 146.542 202.123 L 146.592 202.123 C 146.752 202.183 146.972 202.183 147.192 202.183 L 148.162 202.183 C 148.532 202.183 148.912 202.133 149.242 202.133 C 150.898 202.078 152.555 202.078 154.212 202.133 C 155.722 202.183 157.232 202.353 158.752 202.513 L 161.012 202.833 C 161.512 202.403 161.882 202.073 162.152 201.753 C 160.614 201.444 159.062 201.21 157.502 201.053 C 155.871 200.879 154.232 200.789 152.592 200.783 L 151.992 200.783 C 151.192 200.783 150.322 200.783 149.512 200.833 C 150.312 200.453 151.022 200.083 151.722 199.753 C 152.771 199.2 153.799 198.606 154.802 197.973 C 155.644 197.431 156.474 196.871 157.292 196.293 L 157.452 196.193 C 158.532 196.403 159.832 196.623 161.122 196.893 L 163.882 197.543 C 163.502 196.623 162.362 196.083 161.722 195.813 C 160.802 195.653 159.822 195.433 158.692 195.273 C 158.962 195.053 159.232 194.893 159.502 194.783 C 160.422 194.893 161.182 195.053 161.882 195.323 C 162.422 195.543 162.852 195.753 163.232 196.023 C 163.282 196.083 163.392 196.133 163.452 196.193 C 164.061 196.657 164.434 197.367 164.472 198.133 C 164.532 198.733 164.372 199.373 164.042 200.033 C 163.882 200.403 163.612 200.783 163.342 201.163 C 163.282 201.263 162.802 201.963 161.722 202.893 C 160.559 203.94 159.288 204.862 157.932 205.643 C 156.842 206.301 155.706 206.88 154.532 207.373 C 153.672 207.753 152.212 208.403 150.372 208.943 C 149.402 209.213 148.482 209.483 147.572 209.643 C 146.862 209.803 146.002 209.913 145.132 209.963 C 146.102 209.533 147.182 209.263 148.322 209.103 C 150.101 208.7 151.837 208.12 153.502 207.373 C 152.372 207.373 151.242 207.423 150.052 207.533 C 148.102 207.753 146.542 208.023 145.132 208.503 C 144.332 208.773 143.242 209.203 142.972 209.903 C 142.922 210.293 142.972 210.563 143.072 210.833 C 143.292 211.263 143.732 211.483 144.432 211.583 C 145.078 211.644 145.729 211.627 146.372 211.533 C 147.832 211.373 149.402 211.043 151.182 210.453 C 152.653 209.976 154.095 209.415 155.502 208.773 C 157.008 208.829 158.509 208.996 159.992 209.273 C 161.552 209.533 162.902 209.913 164.202 210.393 C 165.662 210.933 166.902 211.533 167.932 212.233 C 168.312 211.963 168.632 211.693 168.902 211.483 C 168.852 211.483 168.852 211.423 168.802 211.423 C 167.413 210.515 165.923 209.773 164.362 209.213 C 162.917 208.703 161.436 208.302 159.932 208.013 C 159.167 207.849 158.392 207.743 157.612 207.693 C 158.912 206.993 160.042 206.293 161.072 205.483 C 161.911 204.837 162.707 204.135 163.452 203.383 C 165.282 203.863 166.852 204.343 168.252 204.943 C 169.803 205.575 171.274 206.391 172.632 207.373 L 172.732 207.423 C 173.012 207.053 173.232 206.623 173.392 206.293 C 172.21 205.466 170.958 204.743 169.652 204.133 C 168.142 203.433 166.462 202.833 164.622 202.353 C 164.572 202.353 164.522 202.293 164.412 202.293 C 165.147 201.35 165.629 200.234 165.812 199.053 C 165.866 198.748 165.866 198.437 165.812 198.133 C 167.382 198.623 168.892 199.213 170.302 199.863 C 171.702 200.513 172.892 201.213 173.922 202.023 L 173.972 202.073 C 173.758 201.203 173.351 200.393 172.782 199.703 C 172.132 199.323 171.432 199.003 170.682 198.623 C 169.382 198.023 167.922 197.483 166.352 197.003 C 166.019 196.888 165.678 196.797 165.332 196.733 L 165.272 196.733 C 164.835 196.009 164.2 195.426 163.442 195.053 C 162.723 194.698 161.959 194.446 161.172 194.303 C 161.542 194.243 161.872 194.193 162.252 194.193 L 162.352 194.193 C 162.682 194.193 163.052 194.193 163.432 194.243 C 163.542 194.243 163.602 194.243 163.702 194.303 C 164.622 194.403 165.542 194.623 166.572 194.943 C 167.762 195.323 168.892 195.813 169.872 196.403 C 171.023 197.036 172.061 197.857 172.942 198.833 C 173.212 199.163 173.482 199.483 173.702 199.813 C 173.752 199.863 173.802 199.913 173.802 200.023 C 173.802 200.023 173.802 200.083 173.862 200.083 C 174.242 200.723 174.622 201.583 174.672 202.623 C 174.782 203.703 174.572 204.783 174.242 205.643 C 174.242 205.703 173.812 206.883 173.052 207.963 C 172.197 209.207 171.182 210.334 170.032 211.313 C 169.762 211.583 168.952 212.293 167.812 213.043 C 166.718 213.805 165.583 214.506 164.412 215.143 C 163.492 215.693 162.512 216.123 161.332 216.663 C 160.677 216.946 160.009 217.2 159.332 217.423 C 158.059 217.893 156.76 218.29 155.442 218.613 C 153.552 219.043 151.872 219.313 150.252 219.413 C 149.643 219.466 149.03 219.466 148.422 219.413 C 147.552 219.363 146.632 219.253 146.092 218.773 L 145.992 218.673 L 145.992 218.553 C 146.092 218.233 146.362 218.013 146.632 217.803 C 147.052 217.516 147.505 217.28 147.982 217.103 C 149.232 216.603 150.632 216.283 152.252 216.123 C 153.766 216.013 155.288 216.066 156.792 216.283 C 157.552 216.393 158.302 216.613 159.062 216.823 C 159.602 216.663 160.142 216.453 160.522 216.283 C 159.536 215.887 158.524 215.563 157.492 215.313 C 155.929 214.994 154.334 214.867 152.742 214.933 C 151.165 214.979 149.601 215.234 148.092 215.693 C 146.962 216.073 145.722 216.553 144.962 217.533 C 144.632 217.963 144.472 218.443 144.582 218.983 C 144.682 219.633 145.232 220.063 145.502 220.233 C 146.202 220.663 147.072 220.883 147.662 220.933 C 148.312 221.033 149.012 221.093 149.762 221.093 L 150.152 221.093 C 151.916 221.018 153.67 220.783 155.392 220.393 C 157.062 220.013 158.792 219.533 160.572 218.823 C 161.062 218.613 161.602 218.453 162.082 218.223 C 162.892 218.773 163.492 219.363 163.872 220.023 C 164.252 220.663 164.412 221.253 164.412 221.903 C 164.412 222.503 164.252 223.103 163.922 223.633 C 163.872 223.793 163.762 223.903 163.652 224.063 C 164.032 223.963 164.412 223.793 164.792 223.633 L 164.952 223.313 C 165.222 222.613 165.332 221.853 165.222 221.153 C 165.091 220.289 164.716 219.481 164.142 218.823 C 163.872 218.443 163.492 218.123 163.112 217.803 C 164.737 217.047 166.308 216.178 167.812 215.203 C 168.504 214.729 169.187 214.242 169.862 213.743 C 170.898 214.662 171.68 215.833 172.132 217.143 C 172.351 217.787 172.462 218.462 172.462 219.143 C 172.892 218.773 173.262 218.443 173.542 218.173 C 173.422 217.181 173.091 216.226 172.572 215.373 C 172.075 214.51 171.455 213.725 170.732 213.043 C 172.087 211.926 173.269 210.615 174.242 209.153 C 174.292 209.103 174.342 208.993 174.402 208.943 C 175.411 209.938 176.234 211.107 176.832 212.393 L 176.832 212.453 C 176.942 212.663 177.002 212.933 177.102 213.153 C 177.403 212.486 177.605 211.778 177.702 211.053 C 177.255 210.185 176.69 209.384 176.022 208.673 C 175.752 208.343 175.422 208.073 175.102 207.753 C 175.702 206.503 176.082 205.323 176.182 204.183 C 176.452 204.513 176.722 204.833 176.942 205.153 C 177.729 206.279 178.23 207.579 178.402 208.943 C 178.452 209.423 178.452 209.853 178.452 210.343 C 178.452 210.393 178.452 210.883 178.292 211.643 C 178.284 211.775 178.25 211.904 178.192 212.023 C 177.978 212.764 177.704 213.486 177.372 214.183 C 177.322 214.233 177.322 214.343 177.272 214.393 C 177.212 214.453 177.212 214.553 177.162 214.613 C 176.39 216.016 175.405 217.291 174.242 218.393 C 174.082 218.553 173.922 218.713 173.702 218.883 C 173.272 219.313 172.622 219.853 172.022 220.283 C 170.819 221.204 169.538 222.018 168.192 222.713 C 167.162 223.253 166.092 223.793 164.952 224.223 C 162.42 225.229 159.767 225.902 157.062 226.223 C 155.662 226.333 154.582 226.333 153.552 226.173 C 153.006 226.091 152.477 225.925 151.982 225.683 C 151.882 225.626 151.791 225.555 151.712 225.473 C 151.712 225.413 151.662 225.413 151.662 225.363 L 151.662 225.263 C 151.872 224.713 152.582 224.443 153.282 224.223 C 154.033 223.996 154.816 223.888 155.602 223.903 L 155.712 223.903 C 156.522 223.903 157.332 224.003 158.192 224.223 C 159.002 224.393 159.822 224.663 160.522 224.923 C 160.572 224.923 160.572 224.983 160.622 224.983 C 160.952 224.933 161.322 224.823 161.822 224.663 C 161.762 224.663 161.712 224.603 161.602 224.603 C 161.272 224.503 160.952 224.333 160.632 224.223 C 159.712 223.853 158.952 223.633 158.202 223.423 C 157.282 223.203 156.362 223.043 155.502 223.043 C 154.593 222.996 153.683 223.087 152.802 223.313 C 151.872 223.523 151.232 223.913 150.742 224.333 C 150.424 224.651 150.248 225.083 150.252 225.533 C 150.252 225.953 150.472 226.393 150.852 226.713 C 151.822 227.573 153.392 227.793 154.632 227.843 C 156.202 227.953 157.872 227.793 159.712 227.473 L 160.412 227.303 C 160.252 227.573 160.092 227.843 160.032 228.173 C 159.982 228.653 160.252 229.143 160.792 229.413 C 161.272 229.683 161.922 229.843 162.792 229.843 L 163.272 229.843 C 164.622 229.793 166.032 229.473 167.592 228.873 C 169.156 228.302 170.644 227.539 172.022 226.603 C 173.277 225.742 174.419 224.728 175.422 223.583 C 176.44 222.445 177.264 221.148 177.862 219.743 C 178.451 218.381 178.728 216.905 178.672 215.423 C 178.672 215.203 178.672 214.993 178.622 214.773 C 179.512 213.349 179.98 211.702 179.972 210.023"
    fill="#e30613" style="stroke-width: 1;"/>
</svg>